HIERARCHY
ROOT Hips
{
	OFFSET -3.958830 18.904000 13.208200
	CHANNELS 6 Xposition Yposition Zposition Zrotation Yrotation Xrotation 
	JOINT LHipJoint
	{
		OFFSET 0.000000 0.000000 0.000000
		CHANNELS 3 Zrotation Yrotation Xrotation
		JOINT LeftUpLeg
		{
			OFFSET 1.800000 -1.400000 0.085000
			CHANNELS 3 Zrotation Yrotation Xrotation
			JOINT LeftLeg
			{
				OFFSET 2.215000 -6.000000 0.000000
				CHANNELS 3 Zrotation Yrotation Xrotation
				JOINT LeftFoot
				{
					OFFSET 2.500000 -6.900000 0.000000
					CHANNELS 3 Zrotation Yrotation Xrotation
					JOINT LeftToeBase
					{
						OFFSET 0.200000 -0.500000 1.950000
						CHANNELS 3 Zrotation Yrotation Xrotation
						End Site
						{
							OFFSET 0.000000 0.000000 0.000000
						}
					}
				}
			}
		}
	}
	JOINT RHipJoint
	{
		OFFSET 0.000000 0.000000 0.000000
		CHANNELS 3 Zrotation Yrotation Xrotation
		JOINT RightUpLeg
		{
			OFFSET -1.800000 -1.400000 0.085000
			CHANNELS 3 Zrotation Yrotation Xrotation
			JOINT RightLeg
			{
				OFFSET -2.215000 -6.000000 0.000000
				CHANNELS 3 Zrotation Yrotation Xrotation
				JOINT RightFoot
				{
					OFFSET -2.500000 -6.900000 0.000000
					CHANNELS 3 Zrotation Yrotation Xrotation
					JOINT RightToeBase
					{
						OFFSET -0.200000 -0.500000 1.950000
						CHANNELS 3 Zrotation Yrotation Xrotation
						End Site
						{
							OFFSET 0.000000 0.000000 0.000000
						}
					}
				}
			}
		}
	}
	JOINT LowerBack
	{
		OFFSET 0.000000 0.000000 0.000000
		CHANNELS 3 Zrotation Yrotation Xrotation
		JOINT Spine
		{
			OFFSET -0.087000 1.940000 -0.288900
			CHANNELS 3 Zrotation Yrotation Xrotation
			JOINT Spine1
			{
				OFFSET 0.000000 1.950000 0.060000
				CHANNELS 3 Zrotation Yrotation Xrotation
				JOINT Neck
				{
					OFFSET 0.000000 0.000000 0.000000
					CHANNELS 3 Zrotation Yrotation Xrotation
					JOINT Neck1
					{
						OFFSET 0.000000 1.600000 0.340000
						CHANNELS 3 Zrotation Yrotation Xrotation
						JOINT Head
						{
							OFFSET 0.000000 1.667000 -0.240000
							CHANNELS 3 Zrotation Yrotation Xrotation
							End Site
							{
								OFFSET 0.000000 0.000000 0.000000
							}
						}
					}
				}
				JOINT LeftShoulder
				{
					OFFSET 0.000000 0.000000 0.000000
					CHANNELS 3 Zrotation Yrotation Xrotation
					JOINT LeftArm
					{
						OFFSET 2.700000 1.550000 -0.730000
						CHANNELS 3 Zrotation Yrotation Xrotation
						JOINT LeftForeArm
						{
							OFFSET 5.450000 0.000000 0.000000
							CHANNELS 3 Zrotation Yrotation Xrotation
							JOINT LeftHand
							{
								OFFSET 3.450000 0.000000 0.000000
								CHANNELS 3 Zrotation Yrotation Xrotation
								JOINT LeftHandIndex1
								{
									OFFSET 0.750000 0.000000 0.000000
									CHANNELS 3 Zrotation Yrotation Xrotation
									End Site
									{
										OFFSET 0.000000 0.000000 0.000000
									}
								}
							}
						}
					}
				}
				JOINT RightShoulder
				{
					OFFSET 0.000000 0.000000 0.000000
					CHANNELS 3 Zrotation Yrotation Xrotation
					JOINT RightArm
					{
						OFFSET -2.700000 1.550000 -0.730000
						CHANNELS 3 Zrotation Yrotation Xrotation
						JOINT RightForeArm
						{
							OFFSET -5.450000 0.000000 0.000000
							CHANNELS 3 Zrotation Yrotation Xrotation
							JOINT RightHand
							{
								OFFSET -3.450000 0.000000 0.000000
								CHANNELS 3 Zrotation Yrotation Xrotation
								JOINT RightHandIndex1
								{
									OFFSET -0.750000 0.000000 0.000000
									CHANNELS 3 Zrotation Yrotation Xrotation
									End Site
									{
										OFFSET 0.000000 0.000000 0.000000
									}
								}
							}
						}
					}
				}
			}
		}
	}
}
MOTION
Frames: 7
Frame Time: 0.016667
-0.216480 17.135010 -1.900560 -1.907754 -6.619641 7.909206 -15.023778 12.718449 2.769093 0.663107 -3.325137 -21.537748 -4.887007 6.654235 23.966949 -0.674429 5.125838 3.163990 -0.259460 -0.647340 -0.325940 18.576323 -10.226377 3.470529 2.426714 5.828950 -32.171734 5.733648 -3.726543 13.503366 0.525278 -2.477267 3.818035 -0.115810 1.165540 0.174050 -4.221605 -1.174881 -6.955137 12.399142 -1.312706 5.522378 -3.954061 -0.732484 7.916549 0.755502 -2.487336 -5.401222 -5.270018 3.097659 27.997071 -6.367600 3.523660 8.775970 -14.400314 4.059563 0.449826 -42.376605 -2.461501 -1.931959 -65.551321 -47.952848 27.105219 -4.480766 3.448958 0.047360 0.842030 -0.802150 0.208850 12.659705 -3.456437 1.725853 47.542578 -1.764049 -8.084587 40.803475 35.514521 8.598611 1.770840 -1.782519 -0.594710 0.446390 0.458460 -0.108410 
-0.168510 17.063880 -1.962810 -1.522916 -6.863248 9.007875 -15.045140 12.591462 2.818308 0.273842 -3.625529 -22.698174 -5.030365 6.736831 24.563670 -0.687051 5.168136 3.114500 -0.254980 -0.628340 -0.307250 18.584763 -10.045672 3.617275 2.588705 6.384335 -34.282271 5.645579 -3.286180 11.255865 0.559988 -2.209272 3.885092 -0.103230 1.138150 0.186220 -4.216939 -1.189790 -7.060685 12.516759 -1.393637 5.889741 -3.862080 -0.752890 7.509242 0.871884 -2.393887 -5.430408 -4.877884 3.394294 26.885995 -6.854380 4.164670 7.721780 -15.248647 3.258203 0.452540 -41.570068 -1.781027 -2.762114 -62.408224 -45.427394 23.647065 -4.502141 3.418772 0.047570 0.841140 -0.786870 0.178560 13.297860 -2.723780 1.742221 47.774488 -1.581062 -8.364552 40.686317 35.126338 8.250553 1.777317 -1.770364 -0.583800 0.429910 0.470660 -0.122240 
-0.124080 16.976830 -2.018080 -0.590354 -6.856241 9.464606 -15.086523 12.571376 2.888147 -0.846751 -3.909830 -23.169722 -4.563293 6.593339 25.207803 -0.707921 5.150019 3.101135 -0.204120 -0.586510 -0.246380 18.557056 -9.895090 3.714089 1.963159 6.668183 -36.335386 5.449377 -3.157892 11.007341 0.543705 -2.069716 3.903913 -0.083640 1.082290 0.191600 -4.121891 -1.379255 -7.163345 11.746267 -1.645666 6.648729 -3.528791 -0.937747 7.138642 0.831858 -2.572814 -5.593203 -5.143955 3.918934 26.459529 -7.033590 4.672630 6.300020 -15.882746 2.402900 0.622890 -41.217208 -1.000519 -3.716774 -59.318177 -43.297497 20.548000 -4.462425 3.378991 0.100820 0.800230 -0.740150 0.174760 14.059486 -1.652832 1.821981 48.336301 -1.226535 -8.852826 39.710840 35.021205 7.783102 1.786113 -1.743906 -0.578370 0.423170 0.444900 -0.148230 
-0.076510 16.878200 -2.070740 0.108235 -6.761314 9.504945 -15.099463 12.547490 2.970859 -1.672506 -4.189359 -23.545863 -4.398150 6.702279 26.478340 -0.677149 5.252057 3.047763 -0.192960 -0.556930 -0.219650 18.551560 -9.782140 3.821777 1.520785 7.030551 -38.511172 4.825806 -3.241927 12.788948 0.520095 -2.030398 3.900370 -0.080650 1.034460 0.167780 -4.094852 -1.504642 -7.298083 11.687688 -2.060912 7.848851 -3.650244 -1.173925 6.361285 0.893521 -2.887323 -5.735622 -5.672548 4.429976 26.393737 -7.406990 5.297840 5.090430 -16.887529 1.524180 0.708927 -40.774456 -0.341545 -4.575888 -55.146103 -40.655429 17.058413 -4.425100 3.290871 0.139970 0.758060 -0.693970 0.165800 14.917775 -0.509786 1.914199 49.062287 -0.639807 -9.250865 37.934495 34.598008 7.071489 1.816592 -1.676165 -0.578290 0.438940 0.427970 -0.158680 
-0.026510 16.786670 -2.119640 1.019970 -6.278933 8.880374 -15.113010 12.548150 3.085097 -2.958851 -4.575700 -23.615093 -3.786967 6.677831 28.121404 -0.647785 5.389112 2.984261 -0.175490 -0.545980 -0.189850 18.538406 -9.663266 3.964144 0.035134 7.363289 -41.414890 4.304743 -3.794934 17.606998 0.447859 -2.310020 3.769444 -0.088510 0.988500 0.154960 -4.049666 -1.694657 -7.498800 11.450158 -2.707392 9.974359 -3.863983 -1.558512 4.864530 0.949096 -3.206282 -5.750051 -6.252878 4.887205 26.601115 -7.333710 5.505770 3.923720 -18.818590 0.685640 0.656711 -39.326579 0.592518 -5.234906 -51.813012 -38.952232 14.740763 -4.380379 3.223484 0.198490 0.707060 -0.651120 0.157200 16.707744 0.592090 1.886305 48.871488 -0.146837 -9.461552 35.989334 34.244379 6.476876 1.842944 -1.602492 -0.578690 0.448280 0.419340 -0.174680 
0.019750 16.692100 -2.146720 1.832997 -5.468908 7.597260 -15.133717 12.529513 3.175267 -4.113344 -4.963702 -23.291709 -3.142444 6.792433 30.534603 -0.543995 5.628734 2.860757 -0.123000 -0.492920 -0.141710 18.528032 -9.495715 4.176059 -2.397808 7.811146 -44.635306 4.156096 -4.978779 25.599207 0.256688 -3.217857 3.379757 -0.097850 0.884140 0.164870 -3.997374 -1.915011 -7.762501 11.188635 -3.305163 12.464794 -3.907559 -1.939963 3.037339 1.111847 -3.389650 -5.710465 -6.732614 5.242410 27.735812 -7.525080 5.996090 3.151110 -20.593515 0.202423 0.429936 -38.323329 0.894615 -5.487171 -47.698850 -35.963320 11.963308 -4.284114 3.226415 0.249730 0.626220 -0.576410 0.154290 18.146190 1.274042 1.780561 49.188190 0.453861 -9.538278 33.502548 33.619759 5.760823 1.898418 -1.575934 -0.528680 0.386600 0.375050 -0.183630 
0.062160 16.609160 -2.155790 2.356211 -3.972000 5.533141 -15.142814 12.522808 3.195376 -4.921047 -5.230017 -22.278818 -2.305341 6.912880 33.282409 -0.430586 5.962906 2.705513 -0.060720 -0.435480 -0.067380 18.536483 -9.306115 4.407870 -5.651255 8.130083 -47.128070 4.710710 -6.996666 35.274903 -0.061459 -4.787663 2.775802 -0.105900 0.765480 0.159430 -3.993917 -2.189525 -8.060116 11.577336 -4.340216 15.460338 -4.183665 -2.707212 0.994858 1.249738 -3.849182 -5.560246 -7.883911 5.845919 29.951719 -7.615800 6.319710 1.550370 -22.247441 0.319758 0.014582 -37.398846 1.070321 -5.445497 -43.717155 -32.809533 9.558450 -4.173609 3.179452 0.331590 0.522750 -0.481810 0.142380 19.482711 1.398578 1.466438 49.810535 1.344342 -9.438322 31.042008 33.199350 5.272766 1.953940 -1.503167 -0.486680 0.358090 0.330820 -0.203310 
